# xmcd
#
# Track frame offsets:
#	150
#	17443
#	29782
#	47879
#	61739
#	76058
#	89023
#	102859
#	123664
#	133259
#	145610
#	159873
#	198751
#	219345
#	239341
#	262804
#
# Disc length: 3688 seconds
#
# Revision: 1
# Processed by: cddbd v1.4PL0 Copyright (c) Steve Scherf et al.
# Submitted via: EasyCDDAExtractor 6.2.0.3
#
DISCID=d20e6610
DTITLE=Dennis Agajanian - Best Picks, Take Two...
DYEAR=1999
DGENRE=Country
TTITLE0=Truth is Truth
TTITLE1=Take Me in the Lifeboat
TTITLE2=Jesu, Joy of Man's Desiring
TTITLE3=Empty Hearts
TTITLE4=There is a Fountain
TTITLE5=Rawhide
TTITLE6=Willing
TTITLE7=Via Dolorosa
TTITLE8=Come to the Rock
TTITLE9=Lonesome Fiddle Blues
TTITLE10=My Jesus, I Love Thee
TTITLE11=Orange Blossom Special
TTITLE12=Billy Waited
TTITLE13=Great is thy Faithfulness
TTITLE14=Sundown - Never Alone
TTITLE15=Just as I Am
EXTD=
EXTT0=
EXTT1=
EXTT2=
EXTT3=
EXTT4=
EXTT5=
EXTT6=
EXTT7=
EXTT8=
EXTT9=
EXTT10=
EXTT11=
EXTT12=
EXTT13=
EXTT14=
EXTT15=
PLAYORDER=
